<svg width="24" height="24" viewBox="0 0 24 24" fill="none" xmlns="http://www.w3.org/2000/svg">
<path d="M20.5685 1.09521H3.43244C2.8127 1.09521 2.21834 1.34141 1.78012 1.77963C1.34189 2.21785 1.0957 2.81221 1.0957 3.43195L1.0957 20.568C1.0957 21.1878 1.34189 21.7821 1.78012 22.2204C2.21834 22.6586 2.8127 22.9048 3.43244 22.9048H10.1141V15.49H7.04709V12H10.1141V9.34001C10.1141 6.31442 11.9153 4.64316 14.6741 4.64316C15.9953 4.64316 17.3769 4.87879 17.3769 4.87879V7.84839H15.8546C14.3548 7.84839 13.8869 8.77919 13.8869 9.73385V12H17.2353L16.6998 15.49H13.8869V22.9048H20.5685C21.1883 22.9048 21.7826 22.6586 22.2209 22.2204C22.6591 21.7821 22.9053 21.1878 22.9053 20.568V3.43195C22.9053 2.81221 22.6591 2.21785 22.2209 1.77963C21.7826 1.34141 21.1883 1.09521 20.5685 1.09521Z" fill="#1F232E"/>
</svg>
