<svg width="32" height="32" viewBox="0 0 32 32" fill="none" xmlns="http://www.w3.org/2000/svg">
<g clip-path="url(#clip0_4064_937)">
<path d="M29.6092 0H2.3908C1.0704 0 0 1.0704 0 2.3908V29.6092C0 30.9296 1.0704 32 2.3908 32H29.6092C30.9296 32 32 30.9296 32 29.6092V2.3908C32 1.0704 30.9296 0 29.6092 0Z" fill="#BCE062"/>
<path d="M12.6897 28.8736H4.96554C4.16861 28.8736 3.67818 28.0154 4.1073 27.2797L19.1878 3.12646H26.9119C27.7088 3.12646 28.1993 3.9847 27.7701 4.72033L12.6897 28.8736Z" fill="#171D2F"/>
<path d="M26.5441 28.8736H19.9847L26.4215 18.5747C26.9119 17.8391 28.0153 18.1456 28.0153 19.0038V27.4023C28.0153 28.1992 27.341 28.8736 26.5441 28.8736Z" fill="#171D2F"/>
<path d="M5.45594 3.12646H12.0153L5.57855 13.4253C5.08813 14.1609 3.98468 13.8544 3.98468 12.9962V4.59773C3.98468 3.80079 4.65901 3.12646 5.45594 3.12646Z" fill="#171D2F"/>
</g>
<defs>
<clipPath id="clip0_4064_937">
<rect width="32" height="32" fill="white"/>
</clipPath>
</defs>
</svg>
