<svg width="24" height="24" viewBox="0 0 24 24" fill="none" xmlns="http://www.w3.org/2000/svg">
<path d="M21.3402 1.09521H2.55974C1.69919 1.09521 1 1.80419 1 2.67451V21.4207C1 22.291 1.69919 23 2.55974 23H21.3402C22.2007 23 22.9048 22.291 22.9048 21.4207V2.67451C22.9048 1.80419 22.2007 1.09521 21.3402 1.09521ZM7.62033 19.8707H4.37373V9.41708H7.62522V19.8707H7.62033ZM5.99703 7.98936C4.95557 7.98936 4.11459 7.14348 4.11459 6.10691C4.11459 5.07035 4.95557 4.22447 5.99703 4.22447C7.03359 4.22447 7.87947 5.07035 7.87947 6.10691C7.87947 7.14837 7.03848 7.98936 5.99703 7.98936ZM19.7902 19.8707H16.5436V14.7857C16.5436 13.5731 16.5191 12.0134 14.8567 12.0134C13.165 12.0134 12.9058 13.3335 12.9058 14.6977V19.8707H9.65924V9.41708H12.7738V10.8448H12.8178C13.253 10.0234 14.314 9.15794 15.8933 9.15794C19.179 9.15794 19.7902 11.324 19.7902 14.1403V19.8707Z" fill="#1F232E"/>
</svg>
