<svg width="24" height="24" viewBox="0 0 24 24" fill="none" xmlns="http://www.w3.org/2000/svg">
<g clip-path="url(#clip0_1899_8392)">
<path d="M18.4029 7.03381C19.1982 7.03381 19.8429 6.3891 19.8429 5.59381C19.8429 4.79852 19.1982 4.15381 18.4029 4.15381C17.6076 4.15381 16.9629 4.79852 16.9629 5.59381C16.9629 6.3891 17.6076 7.03381 18.4029 7.03381Z" fill="#171D2F"/>
<path d="M11.997 5.83789C10.7782 5.83789 9.58687 6.19928 8.57354 6.87637C7.5602 7.55346 6.7704 8.51584 6.30402 9.64179C5.83763 10.7678 5.7156 12.0067 5.95336 13.202C6.19112 14.3974 6.778 15.4953 7.63977 16.3571C8.50154 17.2189 9.5995 17.8057 10.7948 18.0435C11.9901 18.2813 13.2291 18.1592 14.3551 17.6928C15.481 17.2265 16.4434 16.4367 17.1205 15.4233C17.7976 14.41 18.159 13.2186 18.159 11.9999C18.159 10.3656 17.5098 8.7983 16.3542 7.6427C15.1986 6.4871 13.6312 5.83789 11.997 5.83789ZM11.997 15.9999C11.2058 15.9999 10.4325 15.7653 9.77468 15.3258C9.11688 14.8863 8.60419 14.2615 8.30144 13.5306C7.99869 12.7997 7.91948 11.9955 8.07382 11.2195C8.22816 10.4436 8.60912 9.73087 9.16853 9.17146C9.72794 8.61205 10.4407 8.23109 11.2166 8.07675C11.9925 7.92241 12.7968 8.00162 13.5277 8.30437C14.2586 8.60712 14.8833 9.11981 15.3228 9.77761C15.7624 10.4354 15.997 11.2088 15.997 11.9999C15.997 13.0608 15.5755 14.0782 14.8254 14.8283C14.0753 15.5785 13.0578 15.9999 11.997 15.9999Z" fill="#171D2F"/>
<path d="M11.9971 2.162C15.2011 2.162 15.5811 2.174 16.8461 2.232C17.6069 2.24103 18.3605 2.38073 19.0741 2.645C19.5917 2.84469 20.0619 3.15055 20.4542 3.54288C20.8465 3.93521 21.1524 4.40534 21.3521 4.923C21.6163 5.63653 21.756 6.39016 21.7651 7.151C21.8231 8.416 21.8351 8.796 21.8351 12.001C21.8351 15.206 21.8231 15.584 21.7651 16.849C21.756 17.6098 21.6163 18.3635 21.3521 19.077C21.1524 19.5947 20.8465 20.0648 20.4542 20.4571C20.0619 20.8495 19.5917 21.1553 19.0741 21.355C18.3605 21.6193 17.6069 21.759 16.8461 21.768C15.5811 21.826 15.2011 21.838 11.9971 21.838C8.79307 21.838 8.41307 21.826 7.14807 21.768C6.38723 21.759 5.6336 21.6193 4.92007 21.355C4.40241 21.1553 3.93228 20.8495 3.53995 20.4571C3.14762 20.0648 2.84176 19.5947 2.64207 19.077C2.3778 18.3635 2.2381 17.6098 2.22907 16.849C2.17107 15.584 2.15907 15.204 2.15907 12C2.15907 8.796 2.17107 8.416 2.22907 7.151C2.2381 6.39016 2.3778 5.63653 2.64207 4.923C2.84176 4.40534 3.14762 3.93521 3.53995 3.54288C3.93228 3.15055 4.40241 2.84469 4.92007 2.645C5.6336 2.38073 6.38723 2.24103 7.14807 2.232C8.41307 2.174 8.79307 2.162 11.9971 2.162ZM11.9971 0C8.73807 0 8.32907 0.014 7.04907 0.072C6.05384 0.0920961 5.06923 0.280769 4.13707 0.63C3.33979 0.938297 2.61573 1.40978 2.01129 2.01422C1.40685 2.61866 0.935368 3.34272 0.62707 4.14C0.277729 5.07247 0.0890537 6.05744 0.0690703 7.053C0.0110703 8.333 -0.00292969 8.74 -0.00292969 12C-0.00292969 15.26 0.0110703 15.668 0.0690703 16.948C0.0891664 17.9432 0.27784 18.9278 0.62707 19.86C0.935368 20.6573 1.40685 21.3813 2.01129 21.9858C2.61573 22.5902 3.33979 23.0617 4.13707 23.37C5.06954 23.7193 6.05451 23.908 7.05007 23.928C8.33007 23.986 8.73807 24 11.9971 24C15.2561 24 15.6651 23.986 16.9451 23.928C17.9406 23.908 18.9256 23.7193 19.8581 23.37C20.6553 23.0617 21.3794 22.5902 21.9839 21.9858C22.5883 21.3813 23.0598 20.6573 23.3681 19.86C23.7171 18.9275 23.9054 17.9425 23.9251 16.947C23.9831 15.667 23.9971 15.26 23.9971 12C23.9971 8.74 23.9831 8.332 23.9251 7.052C23.905 6.05677 23.7163 5.07216 23.3671 4.14C23.0588 3.34272 22.5873 2.61866 21.9829 2.01422C21.3784 1.40978 20.6543 0.938297 19.8571 0.63C18.9245 0.281 17.9396 0.0926631 16.9441 0.073C15.6641 0.013 15.2571 0 11.9971 0Z" fill="#171D2F"/>
</g>
<defs>
<clipPath id="clip0_1899_8392">
<rect width="24" height="24" fill="white"/>
</clipPath>
</defs>
</svg>
