<svg width="256" height="256" viewBox="0 0 256 256" fill="none" xmlns="http://www.w3.org/2000/svg">
<g clip-path="url(#clip0_4064_947)">
<path d="M236.874 0H19.1264C8.5632 0 0 8.5632 0 19.1264V236.874C0 247.437 8.5632 256 19.1264 256H236.874C247.437 256 256 247.437 256 236.874V19.1264C256 8.5632 247.437 0 236.874 0Z" fill="#BCE062"/>
<path d="M101.517 230.988H39.7241C33.3487 230.988 29.4253 224.123 32.8582 218.238L153.502 25.0115H215.295C221.67 25.0115 225.594 31.8774 222.161 37.7624L101.517 230.988Z" fill="#171D2F"/>
<path d="M212.352 230.989H159.877L211.372 148.598C215.295 142.713 224.123 145.165 224.123 152.031V219.218C224.123 225.594 218.728 230.989 212.352 230.989Z" fill="#171D2F"/>
<path d="M43.6475 25.0115H96.1226L44.6283 107.402C40.705 113.287 31.8774 110.835 31.8774 103.969V36.7816C31.8774 30.4061 37.272 25.0115 43.6475 25.0115Z" fill="#171D2F"/>
</g>
<defs>
<clipPath id="clip0_4064_947">
<rect width="256" height="256" fill="white"/>
</clipPath>
</defs>
</svg>
