<svg width="1285" height="270" viewBox="0 0 1285 270" fill="none" xmlns="http://www.w3.org/2000/svg">
<path fill-rule="evenodd" clip-rule="evenodd" d="M21.591 61.7459L33.1723 54.0012C33.1723 54.0012 74.0621 33.5041 146.132 31.0919C174.839 30.1312 201.604 31.2717 223.427 32.9911C199.74 12.4392 168.823 1.33244e-05 135 1.33244e-05C87.4464 1.33244e-05 45.6401 24.5906 21.591 61.7459Z" fill="#4F96C8"/>
<path fill-rule="evenodd" clip-rule="evenodd" d="M48.3335 238.501L81.095 238.145C158.459 236.725 196.58 229.674 248.534 208.065C224.504 245.327 182.635 270 135 270C102.007 270 71.7837 258.158 48.3335 238.501Z" fill="#4F96C8"/>
<path fill-rule="evenodd" clip-rule="evenodd" d="M6.02617 95.0002C41.3368 147.508 215.471 146.013 207.862 180.443C194.881 223.754 64.4165 217.313 27.4587 216.606C10.2317 193.939 0 165.666 0 135C0 121.073 2.11043 107.64 6.02617 95.0002Z" fill="#1F3373"/>
<path fill-rule="evenodd" clip-rule="evenodd" d="M265.757 168.709C229.208 118.382 56.2466 119.657 63.8428 86.3354C76.7533 44.5724 204.73 50.5665 240.764 51.1037C259.064 74.142 270 103.292 270 135C270 146.639 268.527 157.934 265.757 168.709Z" fill="#1F3373"/>
<path fill-rule="evenodd" clip-rule="evenodd" d="M440.53 114.414V82.9362H362.929C353.96 82.9362 345.586 86.1544 339.443 92.7506C332.699 99.9923 330 109.781 330 119.504C330 139.839 341.668 156.33 363.146 156.33H405.649C411.902 156.33 415.223 160.258 415.223 166.335C415.223 172.417 411.931 176.599 405.649 176.599H331.301V208.077H413.022C422.064 208.077 430.446 204.822 436.577 198.114C443.309 190.748 445.951 180.791 445.951 170.992C445.951 150.533 434.616 134.425 413.022 134.425H369.651C363.365 134.425 360.294 130.48 360.294 124.42C360.294 118.566 363.614 114.414 369.651 114.414H440.53ZM574.112 208.077V176.599H517.112C510.178 176.599 504.096 173.851 499.801 168.367C494.748 161.917 493.225 153.114 493.225 145.118C493.225 136.925 494.789 127.899 499.768 121.169C503.979 115.477 510.021 112.345 517.112 112.345H539.231C546.445 112.345 549.455 117.142 549.455 123.902C549.455 130.824 546.117 134.942 539.014 134.942H509.988V154.519H546.604C569.085 154.519 579.967 145.061 579.967 122.35C579.967 99.5963 569.072 82.9362 544.869 82.9362H517.329C501.868 82.9362 487.582 88.6875 477.131 100.142C465.895 112.458 461.196 128.957 461.196 145.377C461.196 161.831 465.914 178.376 477.135 190.746C487.567 202.245 501.836 208.077 517.329 208.077H574.112ZM699.453 118.296V82.9362H652.645C637.184 82.9362 622.898 88.6875 612.448 100.142C601.211 112.458 596.513 128.957 596.513 145.377C596.513 161.831 601.23 178.376 612.452 190.746C622.883 202.245 637.152 208.077 652.645 208.077H699.453V172.718H652.428C645.704 172.718 639.591 170.062 635.181 164.984C630.488 159.58 628.542 152.429 628.542 145.377C628.542 138.353 630.473 131.242 635.191 125.889C639.627 120.855 645.752 118.296 652.428 118.296H699.453ZM754.317 208.077V82.9362H722.071V208.077H754.317ZM740.905 66.2895C750.601 66.2895 755.184 58.3451 755.184 49.3862C755.184 40.5501 750.327 33 740.905 33H735.917C726.513 33 721.42 40.4968 721.42 49.3862C721.42 58.4041 726.235 66.2895 735.917 66.2895H740.905ZM903.512 208.077V142.531C903.512 107.75 888.365 82.9362 851.282 82.9362H779.754V208.077H812.217V118.296H850.415C865.531 118.296 871.266 128.145 871.266 142.272V208.077H903.512ZM1041.43 208.077V142.531C1041.43 107.57 1026.76 82.9362 989.418 82.9362H930.683V115.708H988.984C1003.98 115.708 1009.83 125.683 1009.83 139.685V178.927H964.697C958.041 178.927 955.123 174.009 955.123 167.887C955.123 161.299 958.197 156.847 965.13 156.847H995.241V135.718H956.89C934.603 135.718 924.828 151.138 924.828 172.027C924.828 192.723 934.866 208.077 956.89 208.077H1041.43ZM1097.81 208.077V142.272C1097.81 128.308 1103.43 118.296 1118.45 118.296H1145.95V82.9362H1117.58C1080.59 82.9362 1065.57 107.909 1065.57 142.531V208.077H1097.81ZM1227.96 208.077C1243.45 208.077 1257.72 202.245 1268.15 190.746C1279.37 178.376 1284.09 161.831 1284.09 145.377C1284.09 128.957 1279.39 112.458 1268.15 100.142C1257.7 88.6875 1243.42 82.9362 1227.96 82.9362H1212.78C1197.32 82.9362 1183.03 88.6875 1172.58 100.142C1161.34 112.458 1156.64 128.957 1156.64 145.377C1156.64 161.831 1161.36 178.376 1172.58 190.746C1183.02 202.245 1197.28 208.077 1212.78 208.077H1227.96ZM1188.67 145.377C1188.67 138.353 1190.61 131.242 1195.32 125.889C1199.76 120.855 1205.88 118.296 1212.56 118.296H1227.96C1234.6 118.296 1240.69 120.91 1245.11 125.884C1249.86 131.233 1251.84 138.33 1251.84 145.377C1251.84 152.451 1249.84 159.59 1245.12 164.989C1240.72 170.015 1234.64 172.718 1227.96 172.718H1212.56C1205.84 172.718 1199.72 170.062 1195.31 164.984C1190.62 159.58 1188.67 152.429 1188.67 145.377Z" fill="white"/>
</svg>
